<?xml version="1.0" encoding="utf-8"?><svg xml:space="preserve" viewBox="0 0 100 100" y="0" x="0" xmlns="http://www.w3.org/2000/svg" id="圖層_1" version="1.1" width="95px" height="95px" xmlns:xlink="http://www.w3.org/1999/xlink" style="width:100%;height:100%;background-color:rgb(255, 255, 255);animation-play-state:paused" ><g class="ldl-scale" style="transform-origin:50% 50% 0px;transform:scale(0.8);animation-play-state:paused" ><path fill="#666" stroke-miterlimit="10" stroke-width="3.5" stroke="#333" d="M86.125 74a7.382 7.382 0 0 0-7.381-7.381H21.256A7.382 7.382 0 0 0 13.875 74" style="stroke:rgb(51, 51, 51);fill:rgb(102, 102, 102);animation-play-state:paused" ></path>
<circle stroke-miterlimit="10" stroke-width="3.5" stroke="#333" fill="#f5e169" r="30.833" cy="50" cx="50" style="stroke:rgb(51, 51, 51);fill:rgb(245, 225, 105);animation-play-state:paused" ></circle>
<circle fill="#f5e6c8" r="25" cy="50" cx="50" style="fill:rgb(245, 230, 200);animation-play-state:paused" ></circle>
<path fill="#f5e6c8" stroke-linecap="round" stroke="#fff" stroke-miterlimit="10" stroke-width="3.5" d="M31.287 33.422a24.996 24.996 0 0 1 12.138-7.548" style="stroke:rgb(255, 255, 255);fill:rgb(245, 230, 200);animation-play-state:paused" ></path>
<path fill="#f5e6c8" stroke-linecap="round" stroke="#fff" stroke-miterlimit="10" stroke-width="3.5" d="M26.264 42.129a24.863 24.863 0 0 1 1.246-3.061" style="stroke:rgb(255, 255, 255);fill:rgb(245, 230, 200);animation-play-state:paused" ></path>
<path stroke-linecap="round" fill="none" stroke-miterlimit="10" stroke-width="3.5" stroke="#333" d="M40.125 57.085c0 3.913 4.347 7.085 9.708 7.085s10.375-2.312 10.375-7.085c0-4.942-5.013-7.085-10.375-7.085s-10.042-2.571-10.042-7.084c0-4.773 4.68-7.085 10.042-7.085s9.708 3.172 9.708 7.085" style="stroke:rgb(51, 51, 51);animation-play-state:paused" ></path>
<path d="M49.833 32v36" stroke-linecap="round" fill="none" stroke-miterlimit="10" stroke-width="3.5" stroke="#333" style="stroke:rgb(51, 51, 51);animation-play-state:paused" ></path>
<path stroke-miterlimit="10" stroke-width="3.5" stroke="#000" opacity=".2" d="M70.247 26.756c-.842 9.297-3.966 19.605-9.436 29.621-5.278 9.664-11.966 17.636-19.048 23.334A30.829 30.829 0 0 0 50 80.833c17.029 0 30.833-13.805 30.833-30.833 0-9.277-4.103-17.591-10.586-23.244z" style="stroke:rgb(0, 0, 0);animation-play-state:paused" ></path>
<path fill="#666" stroke-miterlimit="10" stroke-width="3.5" stroke="#333" d="M13.875 74a7.382 7.382 0 0 0 7.381 7.381h57.488A7.382 7.382 0 0 0 86.125 74" style="stroke:rgb(51, 51, 51);fill:rgb(102, 102, 102);animation-play-state:paused" ></path>
<metadata xmlns:d="https://loading.io/stock/" style="animation-play-state:paused" ><d:name style="animation-play-state:paused" >payment</d:name>


<d:tags style="animation-play-state:paused" >payment,pay,paid,purchase,checkout,spend,order,deposit,withdraw,shopping,sell,transaction,money</d:tags>


<d:license style="animation-play-state:paused" >by</d:license>


<d:slug style="animation-play-state:paused" >caedoq</d:slug></metadata></g><!-- generated by https://loading.io/ --></svg>